<svg width="45" height="47" viewBox="0 0 45 47" fill="none" xmlns="http://www.w3.org/2000/svg">
<path d="M38.1522 0H6.84783C3.07272 0 0 3.1969 0 7.12684V19.3443V39.7067C0 43.6366 3.07272 46.8335 6.84783 46.8335H38.1522C41.9273 46.8335 45 43.6366 45 39.7067V19.3443V7.12684C45 3.1969 41.9273 0 38.1522 0ZM43.0435 39.7067C43.0435 42.5136 40.8492 44.7973 38.1522 44.7973H6.84783C4.15076 44.7973 1.95652 42.5136 1.95652 39.7067V20.3624H10.125C10.1064 20.4449 10.0996 20.5294 10.0829 20.6118C10.0125 20.9498 9.9538 21.2899 9.90978 21.634C9.89217 21.7664 9.87359 21.8987 9.86087 22.0331C9.81391 22.4903 9.78261 22.9504 9.78261 23.4167C9.78261 30.7146 15.4878 36.6523 22.5 36.6523C29.5122 36.6523 35.2174 30.7146 35.2174 23.4167C35.2174 22.9504 35.1861 22.4892 35.1401 22.0311C35.1274 21.8987 35.1088 21.7684 35.0912 21.6371C35.0462 21.2879 34.9875 20.9427 34.9151 20.6006C34.8985 20.5212 34.8926 20.4398 34.874 20.3614H43.0435V39.7067ZM11.7391 23.4167C11.7391 22.1278 11.9465 20.8735 12.3593 19.6823C13.8688 15.2168 17.9442 12.2174 22.5 12.2174C23.0693 12.2174 23.6318 12.2643 24.1816 12.3549C27.7591 12.9454 30.8475 15.3889 32.3296 18.8668C32.443 19.1325 32.5467 19.4043 32.6407 19.6823C32.6407 19.6833 32.6416 19.6833 32.6416 19.6843C32.6426 19.6864 32.6426 19.6874 32.6436 19.6894C33.0535 20.8735 33.2609 22.1278 33.2609 23.4167C33.2609 29.5916 28.4332 34.6161 22.5 34.6161C16.5668 34.6161 11.7391 29.5916 11.7391 23.4167ZM43.0435 18.3262H34.2362C34.2157 18.2752 34.1912 18.2274 34.1707 18.1765C34.112 18.0329 34.0474 17.8934 33.9838 17.754C33.9095 17.589 33.8341 17.4251 33.7529 17.2653C33.6835 17.1268 33.6091 16.9914 33.5358 16.857C33.4507 16.7022 33.3646 16.5485 33.2746 16.3978C33.1943 16.2645 33.1112 16.1341 33.0271 16.0048C32.9332 15.8603 32.8373 15.7167 32.7375 15.5762C32.6475 15.4489 32.5555 15.3247 32.4616 15.2015C32.3579 15.0661 32.2523 14.9317 32.1447 14.8014C32.0468 14.6823 31.9461 14.5652 31.8443 14.4502C31.7318 14.3239 31.6174 14.1997 31.501 14.0775C31.3943 13.9666 31.2867 13.8566 31.1762 13.7497C31.0559 13.6326 30.9316 13.5186 30.8074 13.4066C30.6939 13.3048 30.5804 13.204 30.463 13.1063C30.3339 12.9983 30.2018 12.8945 30.0688 12.7917C29.9485 12.699 29.8291 12.6064 29.7059 12.5188C29.5689 12.4211 29.429 12.3274 29.2882 12.2358C29.1629 12.1533 29.0377 12.0698 28.9096 11.9924C28.7648 11.9049 28.6171 11.8224 28.4693 11.741C28.3392 11.6687 28.2091 11.5954 28.0761 11.5271C27.9235 11.4498 27.7689 11.3795 27.6134 11.3083C27.4793 11.2472 27.3463 11.183 27.2103 11.127C27.0499 11.0598 26.8855 11.0018 26.7212 10.9407C26.5862 10.8908 26.4522 10.8389 26.3152 10.7931C26.143 10.7371 25.9689 10.6903 25.7938 10.6414C25.6598 10.6037 25.5277 10.563 25.3927 10.5294C25.2068 10.4846 25.018 10.45 24.8302 10.4133C24.703 10.3889 24.5768 10.3583 24.4487 10.338C24.2374 10.3034 24.0222 10.282 23.8079 10.2586C23.6993 10.2474 23.5927 10.229 23.4832 10.2199C23.1564 10.1954 22.8297 10.1812 22.5 10.1812C22.1703 10.1812 21.8436 10.1954 21.5188 10.2219C21.4092 10.2311 21.3026 10.2484 21.194 10.2606C20.9798 10.284 20.7655 10.3054 20.5542 10.34C20.4241 10.3614 20.2979 10.3909 20.1688 10.4164C19.982 10.453 19.7941 10.4866 19.6102 10.5314C19.4723 10.565 19.3383 10.6068 19.2023 10.6455C19.0301 10.6933 18.8579 10.7401 18.6887 10.7951C18.5488 10.8409 18.4128 10.8949 18.2749 10.9448C18.1145 11.0038 17.953 11.0619 17.7946 11.127C17.6547 11.1851 17.5177 11.2502 17.3798 11.3133C17.2291 11.3826 17.0775 11.4508 16.9298 11.5261C16.7909 11.5964 16.6559 11.6727 16.5199 11.7481C16.378 11.8265 16.2372 11.9049 16.0983 11.9894C15.9633 12.0718 15.8312 12.1594 15.6991 12.2459C15.5661 12.3335 15.434 12.4211 15.3039 12.5137C15.1728 12.6074 15.0457 12.7051 14.9175 12.8039C14.7933 12.8996 14.67 12.9963 14.5487 13.0971C14.4225 13.202 14.3002 13.3109 14.1779 13.4209C14.0625 13.5247 13.949 13.6296 13.8375 13.7375C13.7182 13.8536 13.6017 13.9717 13.4863 14.0918C13.3797 14.2038 13.274 14.3168 13.1713 14.4329C13.0598 14.5581 12.9512 14.6854 12.8436 14.8157C12.7448 14.9358 12.6479 15.058 12.553 15.1822C12.4513 15.3156 12.3515 15.45 12.2537 15.5874C12.1617 15.7167 12.0737 15.8491 11.9866 15.9824C11.8957 16.1219 11.8057 16.2624 11.7196 16.407C11.6354 16.5475 11.5552 16.6911 11.476 16.8346C11.3967 16.9782 11.3185 17.1217 11.2441 17.2693C11.1659 17.4241 11.0935 17.5829 11.0211 17.7418C10.9565 17.8843 10.891 18.0268 10.8303 18.1724C10.8088 18.2243 10.7834 18.2732 10.7628 18.3251H1.95652V7.12684C1.95652 4.31988 4.15076 2.03624 6.84783 2.03624H38.1522C40.8492 2.03624 43.0435 4.31988 43.0435 7.12684V18.3262Z" fill="white"/>
<path d="M22.5 16.29C18.7249 16.29 15.6522 19.4869 15.6522 23.4169C15.6522 27.3468 18.7249 30.5437 22.5 30.5437C26.2751 30.5437 29.3478 27.3468 29.3478 23.4169C29.3478 19.4869 26.2751 16.29 22.5 16.29ZM22.5 28.5075C19.8029 28.5075 17.6087 26.2238 17.6087 23.4169C17.6087 20.6099 19.8029 18.3263 22.5 18.3263C25.197 18.3263 27.3913 20.6099 27.3913 23.4169C27.3913 26.2238 25.197 28.5075 22.5 28.5075Z" fill="white"/>
<path d="M38.1522 6.10864H35.2174C34.6764 6.10864 34.2391 6.56476 34.2391 7.12676V10.1811C34.2391 10.7431 34.6764 11.1992 35.2174 11.1992H38.1522C38.6932 11.1992 39.1304 10.7431 39.1304 10.1811V7.12676C39.1304 6.56476 38.6932 6.10864 38.1522 6.10864ZM37.1739 9.16299H36.1957V8.14487H37.1739V9.16299Z" fill="white"/>
</svg>
