<svg width="45" height="29" viewBox="0 0 45 29" fill="none" xmlns="http://www.w3.org/2000/svg">
<path d="M37.3406 16.4227C36.6131 15.4665 36.8213 15.0411 37.3406 14.1864C37.35 14.1766 43.3556 5.53971 43.9744 2.61066L43.9781 2.60871C44.2856 1.5413 43.9781 0.756836 42.4913 0.756836H37.5713C36.3188 0.756836 35.7413 1.43007 35.4319 2.18331C35.4319 2.18331 32.9269 8.42388 29.3831 12.4691C28.2394 13.638 27.7106 14.0127 27.0863 14.0127C26.7788 14.0127 26.3006 13.638 26.3006 12.5706V2.60871C26.3006 1.3286 25.95 0.756836 24.9131 0.756836H17.1769C16.3913 0.756836 15.9244 1.35396 15.9244 1.91011C15.9244 3.12388 17.6963 3.40293 17.88 6.81788V14.2273C17.88 15.8509 17.5969 16.1495 16.9688 16.1495C15.2963 16.1495 11.2369 9.88353 8.83125 2.71214C8.34563 1.32079 7.87125 0.758787 6.60938 0.758787H1.6875C0.283125 0.758787 0 1.43202 0 2.18526C0 3.51611 1.6725 10.1333 7.7775 18.8756C11.8463 24.8429 17.5763 28.0764 22.7888 28.0764C25.9219 28.0764 26.3044 27.3583 26.3044 26.1231C26.3044 20.4211 26.0213 19.8825 27.5906 19.8825C28.3181 19.8825 29.5706 20.2572 32.4956 23.1355C35.8388 26.5485 36.3881 28.0764 38.2594 28.0764H43.1794C44.5819 28.0764 45.2925 27.3583 44.8838 25.9416C43.9481 22.9618 37.6256 16.8325 37.3406 16.4227V16.4227Z" fill="white"/>
</svg>
